<svg xmlns="http://www.w3.org/2000/svg" fill="none" viewBox="0 0 32 32">
    <g clip-path="url(#a)">
        <path fill="#0432D3"
              fill-rule="evenodd"
              d="M0 2.674V0H32V32H0V2.674zM12.666 12.2H17v2.176c.626-1.25 2.226-2.377 4.63-2.377 4.61 0 5.702 2.492 5.702 7.064v8.468h-4.665v-7.427c0-2.604-.625-4.073-2.213-4.073-2.204 0-3.12 1.584-3.12 4.073v7.427h-4.667V12.2zm-8 15.132h4.666V12H4.666v15.333zM10 7a3 3 0 0 1-.855 2.164A3 3 0 0 1 7 10.066 3 3 0 0 1 4 7a3 3 0 0 1 3-2.935 3 3 0 0 1 2.098.856A3 3 0 0 1 10 7z"
              clip-rule="evenodd"/>
    </g>
    <defs>
        <clipPath id="a">
            <path fill="#fff"
                  d="M0 0h32v32H0z"/>
        </clipPath>
    </defs>
</svg>
