<svg xmlns="http://www.w3.org/2000/svg" fill="none" viewBox="0 0 32 32">
  <path fill="#0432D3" d="M32 0H.00008C0 .5 0 .572 0 1.28V32h32V0Zm-7.388 11.588c.012.188.012.384.012.576 0 5.872-4.472 12.636-12.644 12.636-2.52 0-4.856-.732-6.824-1.992.36.04.704.056 1.072.056 2.08 0 3.992-.704 5.516-1.896-1.952-.04-3.592-1.32-4.152-3.08.684.1 1.3.1 2.004-.08a4.44009 4.44009 0 0 1-3.556-4.36v-.056c.588.332 1.28.536 2.004.564a4.4453 4.4453 0 0 1-1.98-3.696c0-.828.216-1.584.604-2.24a12.61115 12.61115 0 0 0 9.16 4.644C15.2 9.644 17.456 7.2 20.168 7.2c1.28 0 2.432.536 3.244 1.4 1.004-.188 1.964-.564 2.82-1.068-.332 1.028-1.028 1.896-1.952 2.444.896-.096 1.76-.344 2.56-.692-.604.888-1.36 1.676-2.228 2.304Z"/>
</svg>
