<svg xmlns="http://www.w3.org/2000/svg" fill="none" viewBox="0 0 32 32">
    <path fill="#0432D3"
          fill-rule="evenodd"
          d="M16.042 24.97h.004c5.018 0 9.102-4.065 9.104-9.061a8.985 8.985 0 0 0-2.664-6.41A9.064 9.064 0 0 0 16.05 6.84c-5.022 0-9.107 4.065-9.109 9.06 0 1.713.481 3.38 1.392 4.822l.217.343-.92 3.344 3.446-.9.332.197c1.398.825 3 1.262 4.634 1.263zm3.128-7.673c.25.091 1.596.75 1.87.887l.15.073c.19.091.32.153.374.245.069.113.069.659-.16 1.295-.227.636-1.32 1.217-1.847 1.295-.471.07-1.068.1-1.723-.108a15.797 15.797 0 0 1-1.56-.574c-2.566-1.102-4.3-3.577-4.628-4.045a3.066 3.066 0 0 0-.048-.067l-.003-.004c-.145-.192-1.115-1.48-1.115-2.814 0-1.255.62-1.913.904-2.215l.054-.058c.25-.273.547-.34.73-.34.182 0 .365.001.524.009h.062c.16 0 .358-.001.554.468.076.18.186.448.303.73.235.57.495 1.2.541 1.292.069.136.114.296.023.477a7.759 7.759 0 0 0-.039.078c-.068.14-.118.242-.235.377-.046.053-.093.11-.14.168-.095.114-.189.228-.27.309-.137.136-.28.283-.12.556.16.273.709 1.165 1.522 1.887.875.777 1.636 1.105 2.02 1.271a4 4 0 0 1 .181.081c.274.136.434.114.593-.068.16-.182.685-.795.867-1.068.182-.273.365-.227.616-.137z"
          clip-rule="evenodd"/>
    <path fill="#0432D3"
          fill-rule="evenodd"
          d="M32 0H0v32h32V0zM16.046 5a10.91 10.91 0 0 1 7.748 3.197A10.81 10.81 0 0 1 27 15.91c-.003 6.011-4.917 10.902-10.954 10.902h-.004c-1.834 0-3.635-.459-5.235-1.327L5 27l1.554-5.649a10.843 10.843 0 0 1-1.462-5.45C5.094 9.89 10.008 5 16.046 5z"
          clip-rule="evenodd"/>
</svg>
