<svg xmlns="http://www.w3.org/2000/svg" fill="none" viewBox="0 0 20 20">
    <path fill="#050A1B"
          fill-rule="evenodd"
          d="M3.747 3.747a.844.844 0 0 1 .597-.247h3.938V2H4.344A2.344 2.344 0 0 0 2 4.344V15.5a2.344 2.344 0 0 0 2.344 2.344h3.938v-1.5H4.344A.844.844 0 0 1 3.5 15.5V4.344c0-.224.089-.439.247-.597zm9.363 1.13.53.53 3.985 3.985.53.53-.53.53-3.985 3.985-.53.53-1.06-1.06.53-.53 2.704-2.705H6.782v-1.5h8.502L12.58 6.468l-.53-.53 1.06-1.061z"
          clip-rule="evenodd"/>
</svg>
