<svg xmlns="http://www.w3.org/2000/svg" fill="none" viewBox="0 0 20 20">
  <path fill="#050A1B" d="M17.111 18v.75h.75V18h-.75Zm0-1.896h.75-.75Zm-3.793-3.793v-.75.75Zm-6.637 0v-.75.75ZM2.89 16.104h-.75.75Zm0 1.896h-.75v.75h.75V18Zm14.972 0v-1.896h-1.5V18h1.5Zm0-1.896c0-1.205-.479-2.36-1.33-3.212l-1.061 1.06c.57.57.891 1.345.891 2.152h1.5Zm-1.33-3.212a4.543 4.543 0 0 0-3.212-1.331v1.5c.806 0 1.58.32 2.15.891l1.062-1.06Zm-3.212-1.331H6.68v1.5h6.638v-1.5Zm-6.638 0c-1.204 0-2.36.479-3.212 1.33l1.061 1.061a3.043 3.043 0 0 1 2.151-.891v-1.5Zm-3.212 1.33a4.543 4.543 0 0 0-1.33 3.213h1.5c0-.807.32-1.581.891-2.152l-1.06-1.06Zm-.58 3.213h-.75V18h1.5v-1.896h-.75Zm14.22 1.146H2.89v1.5h14.22v-1.5Z"/>
  <path stroke="#050A1B" stroke-linecap="round" stroke-linejoin="round" stroke-width="1.5" d="M10 9.585A3.793 3.793 0 1 0 10 2a3.793 3.793 0 0 0 0 7.585Z"/>
</svg>
