<svg xmlns="http://www.w3.org/2000/svg" fill="none" viewBox="0 0 32 32">
    <path fill="#0432D3"
          fill-rule="evenodd"
          d="M16.0423 24.9699h.0037c5.0181 0 9.1024-4.0648 9.1044-9.061.0009-2.4212-.9451-4.6977-2.664-6.41037-1.719-1.71282-4.005-2.65649-6.4367-2.65733-5.0221 0-9.10638 4.0644-9.10838 9.0602-.00074 1.7122.48069 3.3796 1.39201 4.8221l.21647.343-.91975 3.3436 3.44585-.8995.3326.1962c1.3978.8256 3.0001 1.2625 4.6338 1.2631Zm3.1275-7.6725c.251.0909 1.5965.7499 1.8702.8862.0535.0267.1036.0507.15.0731.1907.0917.3195.1537.3745.245.0684.1136.0684.659-.1596 1.2953-.2281.6363-1.3215 1.2171-1.8475 1.2953-.4715.0701-1.0681.0994-1.7238-.1079-.3976-.1257-.9075-.2932-1.5604-.5739-2.5656-1.1026-4.2997-3.5774-4.6275-4.0454-.023-.0328-.0391-.0557-.0481-.0676l-.0023-.0031c-.1452-.1929-1.1152-1.4813-1.1152-2.8147 0-1.2548.6192-1.9124.9042-2.2152.0196-.0208.0376-.0398.0537-.0573.2509-.2728.5474-.3409.7298-.3409.1825 0 .3652.0018.5246.0096.0197.001.0401.0009.0613.0008.1595-.001.3584-.0021.5545.4668.0755.1806.186.4483.3026.7306.2354.5705.4956 1.2008.5413 1.2921.0685.1362.1142.2953.0229.4771a7.75882 7.75882 0 0 0-.0386.0779c-.0685.1392-.1188.2415-.2351.3766-.0459.0533-.0933.1107-.1407.1682-.0941.1139-.1881.2278-.2699.309-.1371.1358-.2797.2832-.1201.5559.1597.2728.709 1.1648 1.5226 1.8871.8751.7767 1.6355 1.1049 2.0207 1.2712.075.0323.1358.0586.1804.0808.2736.1364.4333.1136.593-.0681.1596-.1819.6843-.7954.8667-1.0681.1824-.2727.365-.2272.6158-.1364Z"
          clip-rule="evenodd"/>
    <path fill="#0432D3"
          fill-rule="evenodd"
          d="M32 0H0v32h32V0ZM16.0459 5c2.9302.00126 5.6805 1.13656 7.7486 3.19719C25.8626 10.2577 27.0011 12.9966 27 15.9094c-.0025 6.0108-4.9169 10.9016-10.954 10.9016h-.0045c-1.8333-.0006-3.6347-.4585-5.2346-1.3269L5 27l1.554-5.649c-.95864-1.6534-1.46294-3.5288-1.4622-5.4501C5.09422 9.89018 10.0082 5 16.0459 5Z"
          clip-rule="evenodd"/>
</svg>
