<svg width="24" height="24" viewBox="0 0 24 24" fill="none" xmlns="http://www.w3.org/2000/svg">
<path fill-rule="evenodd" clip-rule="evenodd" d="M24 0H0V24H24V0ZM9.49697 12C9.49697 10.6228 10.6208 9.49894 11.998 9.49894C13.3751 9.49894 14.499 10.6228 14.499 12C14.499 13.3772 13.3751 14.5011 11.998 14.5011C10.6208 14.5011 9.49697 13.3772 9.49697 12ZM19.4994 11.6211C19.4993 11.7473 19.4992 11.8736 19.4992 12C19.4992 12.1414 19.4994 12.2826 19.4996 12.4236C19.5009 13.316 19.5022 14.2031 19.4504 15.0958C19.3922 16.2967 19.1202 17.3605 18.2402 18.2405C17.3621 19.1186 16.2964 19.3925 15.0956 19.4507C14.188 19.5017 13.2862 19.5007 12.3787 19.4997C12.2525 19.4996 12.1263 19.4994 11.9999 19.4994C11.8737 19.4994 11.7477 19.4996 11.6217 19.4997C10.7155 19.5007 9.81338 19.5017 8.90408 19.4507C7.70329 19.3925 6.63946 19.1204 5.75951 18.2405C4.88143 17.3624 4.6075 16.2967 4.54934 15.0958C4.49827 14.1882 4.49927 13.2848 4.50028 12.3782C4.50042 12.2522 4.50056 12.1261 4.50056 12C4.50056 11.8738 4.50042 11.7478 4.50028 11.6218C4.49927 10.7156 4.49827 9.81348 4.54934 8.90416C4.6075 7.70335 4.87956 6.6395 5.75951 5.75953C6.63759 4.88144 7.70329 4.60751 8.90408 4.54934C9.8117 4.49828 10.7135 4.49927 11.621 4.50028C11.7472 4.50042 11.8734 4.50056 11.9999 4.50056C12.126 4.50056 12.2521 4.50042 12.378 4.50028C13.2843 4.49927 14.1863 4.49827 15.0956 4.54934C16.2964 4.60751 17.3603 4.87956 18.2402 5.75953C19.1183 6.63763 19.3922 7.70335 19.4504 8.90416C19.5014 9.81178 19.5004 10.7136 19.4994 11.6211ZM8.14983 12C8.14983 14.1296 9.86846 15.8482 11.998 15.8482C14.1275 15.8482 15.8461 14.1296 15.8461 12C15.8461 9.87044 14.1275 8.15178 11.998 8.15178C9.86846 8.15178 8.14983 9.87044 8.14983 12ZM15.105 7.99417C15.105 8.49138 15.5065 8.8929 16.0037 8.8929C16.1218 8.89305 16.2387 8.8699 16.3478 8.82479C16.4569 8.77968 16.5561 8.71348 16.6396 8.63C16.723 8.54651 16.7892 8.44738 16.8343 8.33827C16.8795 8.22917 16.9026 8.11223 16.9025 7.99417C16.9025 7.49696 16.5009 7.09544 16.0037 7.09544C15.5065 7.09544 15.105 7.49696 15.105 7.99417Z" fill="#0432D3"/>
</svg>
