<svg xmlns="http://www.w3.org/2000/svg" fill="none" viewBox="0 0 32 32">
    <g clip-path="url(#a)">
        <path fill="#0432D3" fill-rule="evenodd"
              d="M.0001 2.67371c0-.70904-.0001-2.17344 0-2.67345.4999-.00002 1.96441 0 2.67345 0H29.3237c.3514-.00058.6764-.00001 1.1764.00001.3989.00002 1-.00003 1.5-.00003v1.50001c0 .5.0002.82208 0 1.17346V29.3239c.0004.3514 0 .7328 0 1.1763v1.5h-1.5c-.5 0-.8235.0002-1.1749.0001H2.67355c-.3512 0-.67355-.0001-1.17358-.0001-.49997 0-.99997 0-1.49994.0001C0 31.5002.00005 31.0002.00006 30.5002c0-.5-.00015-.8237.00004-1.1749V2.67371ZM12.6663 12.201h4.3331v2.176c.6254-1.2509 2.2254-2.3767 4.6298-2.3767 4.6094 0 5.7018 2.4916 5.7018 7.0632v8.4684h-4.6647V20.105c0-2.6037-.6255-4.0727-2.2138-4.0727-2.2037 0-3.12 1.584-3.12 4.0727v7.4269h-4.6662V12.201ZM4.66628 27.3326h4.66618V12.0003H4.66628v15.3323ZM10.0001 6.99953a3.00067 3.00067 0 0 1-.85494 2.16441 3.0007 3.0007 0 0 1-2.14506.90236 3.00066 3.00066 0 0 1-3-3.06677 3.0007 3.0007 0 0 1 3-2.93467c.7844 0 1.53762.30715 2.09834.85567a3.00072 3.00072 0 0 1 .90166 2.079Z"
              clip-rule="evenodd"/>
    </g>
    <defs>
        <clipPath id="a">
            <path fill="#fff" d="M0 0h32.0003v32.0003H0z"/>
        </clipPath>
    </defs>
</svg>
