<svg width="24" height="24" viewBox="0 0 24 24" fill="none" xmlns="http://www.w3.org/2000/svg">
<path d="M23.9998 0L0.000284849 0C0.000366208 0.375 0 0.429 0 0.96L0.000366208 24C0.750361 24 0.428997 24 0.959994 24L23.0398 24C23.5708 24 23.6252 24 23.9998 24L23.9998 0.531C23.9998 0 24.0002 0.375 23.9998 0ZM20.2679 7.005L18.3509 7.005C16.8479 7.005 16.5569 7.719 16.5569 8.769L16.5569 11.082L20.1449 11.082L19.6769 14.703L16.5569 14.703V24H12.8159L12.8159 14.706H9.68693V11.082H12.8159V8.412C12.8159 5.313 14.7089 3.624 17.4749 3.624C18.8009 3.624 19.9379 3.723 20.2709 3.768V7.005H20.2679Z" fill="#0432D3"/>
</svg>
