<svg xmlns="http://www.w3.org/2000/svg" fill="none" viewBox="0 0 32 32">
    <path fill="#0432D3"
          d="M32 0H0v32h32V0zm-7.388 11.588c.012.188.012.384.012.576 0 5.872-4.472 12.636-12.644 12.636a12.6 12.6 0 0 1-6.824-1.992c.36.04.704.056 1.072.056 2.08 0 3.992-.704 5.516-1.896a4.444 4.444 0 0 1-4.152-3.08c.684.1 1.3.1 2.004-.08a4.44 4.44 0 0 1-3.556-4.36v-.056c.588.332 1.28.536 2.004.564a4.445 4.445 0 0 1-1.98-3.696c0-.828.216-1.584.604-2.24a12.611 12.611 0 0 0 9.16 4.644C15.2 9.644 17.456 7.2 20.168 7.2c1.28 0 2.432.536 3.244 1.4a8.776 8.776 0 0 0 2.82-1.068 4.422 4.422 0 0 1-1.952 2.444 8.786 8.786 0 0 0 2.56-.692 9.31 9.31 0 0 1-2.228 2.304z"/>
</svg>
