<svg xmlns="http://www.w3.org/2000/svg" fill="none" viewBox="0 0 32 32">
    <path fill="#0432D3"
          fill-rule="evenodd"
          d="M32 0H0v32h32V0zM12.663 16a3.342 3.342 0 0 1 3.334-3.335c1.836 0 3.335 1.499 3.335 3.335s-1.499 3.335-3.335 3.335A3.342 3.342 0 0 1 12.663 16zm13.336-.505V16.565c.002 1.19.004 2.372-.065 3.563-.078 1.6-.44 3.02-1.614 4.193-1.17 1.17-2.591 1.536-4.193 1.613-1.21.068-2.412.067-3.622.066a424.832 424.832 0 0 0-1.01 0c-1.208.001-2.41.002-3.623-.066-1.601-.077-3.02-.44-4.193-1.613-1.17-1.171-1.536-2.592-1.613-4.193-.068-1.21-.067-2.415-.066-3.624A445.48 445.48 0 0 0 6 16a445.48 445.48 0 0 0 0-.504c-.001-1.209-.002-2.411.066-3.624.077-1.6.44-3.02 1.613-4.193 1.171-1.17 2.592-1.536 4.193-1.613 1.21-.068 2.413-.067 3.623-.066a447.073 447.073 0 0 0 1.009 0c1.208-.001 2.411-.002 3.623.066 1.602.077 3.02.44 4.193 1.613 1.171 1.171 1.536 2.592 1.614 4.193.068 1.21.067 2.413.065 3.623zM10.866 16a5.124 5.124 0 0 0 5.131 5.131c2.84 0 5.131-2.292 5.131-5.131a5.124 5.124 0 0 0-5.13-5.131A5.124 5.124 0 0 0 10.865 16zm9.274-5.341a1.197 1.197 0 0 0 2.046.848 1.197 1.197 0 0 0-.848-2.046c-.663 0-1.198.535-1.198 1.198z"
          clip-rule="evenodd"/>
</svg>
