<svg xmlns="http://www.w3.org/2000/svg" fill="none" viewBox="0 0 30 24">
  <path fill="#050A1B" d="M9.38552 23.1005v-1.4884c0-.5706-.34249-.9427-.92962-.9427-.29357 0-.61159.0992-.83177.4217-.17124-.2729-.41588-.4217-.78283-.4217-.24464 0-.48928.0744-.68498.3473v-.2977h-.51374v2.3567h.51374v-1.3148c0-.4217.22017-.6202.56266-.6202.34249 0 .51374.2233.51374.6202v1.3148h.51373v-1.3148c0-.4217.24464-.6202.56267-.6202.34249 0 .51373.2233.51373.6202v1.3148h.56267v.0248Zm2.86228-1.1659v-1.1908h-.5138v.2977c-.1712-.2233-.4159-.3473-.7339-.3473-.6605 0-1.17424.521-1.17424 1.2404 0 .7194.51374 1.2403 1.17424 1.2403.3425 0 .5871-.124.7339-.3473v.2977h.5138v-1.1907Zm-1.9082 0c0-.4218.2691-.7691.7094-.7691.4159 0 .7095.3225.7095.7691 0 .4217-.2936.769-.7095.769-.4403-.0248-.7094-.3721-.7094-.769Zm12.77-1.2652c.1713 0 .3425.0248.4893.0992.1468.0745.2936.1489.3914.2729.1223.0992.1957.2481.2691.3969.0734.1489.0979.3225.0979.4962 0 .1736-.0245.3473-.0979.4961-.0734.1489-.1468.2729-.2691.3969-.1223.0993-.2446.1985-.3914.2729-.1468.0744-.318.0992-.4893.0992-.1712 0-.3425-.0248-.4892-.0992-.1468-.0744-.2936-.1488-.3915-.2729-.1223-.0992-.1957-.248-.2691-.3969-.0734-.1488-.0978-.3225-.0978-.4961 0-.1737.0244-.3473.0978-.4962.0734-.1488.1468-.2729.2691-.3969.1224-.0992.2447-.1984.3915-.2729.1467-.0496.318-.0992.4892-.0992Zm0 .4961c-.0978 0-.1957.0249-.2935.0497-.0979.0248-.1713.0992-.2202.1488-.0734.0744-.1223.1488-.1468.2481-.0489.0992-.0489.1984-.0489.2977 0 .124.0244.2232.0489.2976.0489.0993.0979.1737.1468.2481.0734.0744.1468.1241.2202.1489.0978.0248.1957.0496.2935.0496.0979 0 .1957-.0248.2936-.0496.0978-.0248.1712-.0993.2446-.1489.0734-.0744.1223-.1488.1468-.2481.0489-.0992.0489-.1984.0489-.2976 0-.1241-.0244-.2233-.0489-.2977-.0489-.0993-.0978-.1737-.1468-.2481-.0734-.0744-.1468-.124-.2446-.1488-.0979-.0248-.1957-.0497-.2936-.0497Zm-8.0974.7691c0-.7442-.4649-1.2404-1.1009-1.2404-.685 0-1.1743.4962-1.1743 1.2404s.4893 1.2403 1.1988 1.2403c.3424 0 .6849-.0992.954-.3225l-.2446-.3721c-.1957.1489-.4403.2481-.685.2481-.318 0-.636-.1488-.7094-.5706h1.7369c0-.0992.0245-.1736.0245-.2232Zm-1.737-.2233c.049-.3473.2691-.5706.6116-.5706.3181 0 .5382.1985.5872.5706h-1.1988Zm3.8653-.3721c-.1468-.0992-.4404-.1985-.7339-.1985-.2691 0-.4404.0993-.4404.2729 0 .1489.1713.1985.3915.2233l.2446.0248c.5137.0744.8073.2977.8073.7194 0 .4465-.3914.769-1.0764.769-.3914 0-.7339-.0992-1.003-.2977l.2446-.3969c.1713.1241.4159.2481.7829.2481.3424 0 .5382-.0992.5382-.2977 0-.124-.1224-.1984-.4159-.2481l-.2447-.0248c-.5137-.0744-.8073-.3225-.8073-.6946 0-.4713.3915-.769.9786-.769.3669 0 .7094.0744.9541.2481l-.2202.4217Zm2.4464-.124h-.8318v1.0667c0 .248.0734.3969.3425.3969.1223 0 .2936-.0496.4403-.124l.1468.4465c-.1712.124-.4159.1736-.636.1736-.6116 0-.8073-.3225-.8073-.8682v-1.0915h-.4649v-.4714h.4649v-.7194h.5137v.7194h.8318v.4714Zm1.7613-.521c.0979 0 .2447.0248.367.0744l-.1468.4962c-.0978-.0496-.2202-.0496-.318-.0496-.3425 0-.4893.2232-.4893.6201v1.3396h-.5137v-2.3567h.5137v.2977c.0979-.2977.2936-.4217.5871-.4217Z"/>
  <path fill="#7673C0" d="M18.8525 2.6748h-7.706v14.1498h7.706V2.6748Z"/>
  <path fill="#EB001B" d="M11.6363 9.75006c0-2.87496 1.3211-5.42492 3.3515-7.0749C13.4956 1.47517 11.6119.75018 9.55692.75018 4.68865.75018.75 4.77513.75 9.75006c0 4.97494 3.93865 8.99984 8.80692 8.99984 2.05498 0 3.93868-.7249 5.43088-1.9249-2.0304-1.65-3.3515-4.2-3.3515-7.07494Z"/>
  <path fill="#00A1DF" d="M29.2496 9.74988c0 4.97492-3.9387 8.99992-8.807 8.99992-2.0549 0-3.9386-.725-5.4309-1.925 2.055-1.65 3.3515-4.2 3.3515-7.07492 0-2.87496-1.321-5.42493-3.3515-7.07491C16.504 1.47499 18.3877.75 20.4426.75c4.8683 0 8.807 4.04995 8.807 8.99988Z"/>
</svg>
