<svg xmlns="http://www.w3.org/2000/svg" fill="none" viewBox="0 0 30 24">
    <path fill="#050A1B"
          d="M9.386 23.1v-1.488c0-.57-.343-.943-.93-.943-.294 0-.612.1-.832.422-.171-.273-.416-.422-.783-.422a.786.786 0 0 0-.685.348v-.298h-.513v2.357h.513V21.76c0-.422.22-.62.563-.62.342 0 .514.223.514.62v1.315h.513V21.76c0-.422.245-.62.563-.62.343 0 .514.223.514.62v1.315h.563v.025zm2.862-1.165v-1.191h-.514v.298a.88.88 0 0 0-.734-.348c-.66 0-1.174.521-1.174 1.24 0 .72.514 1.24 1.174 1.24.343 0 .587-.123.734-.346v.297h.514v-1.19zm-1.908 0c0-.422.269-.77.709-.77.416 0 .71.323.71.77 0 .421-.294.769-.71.769-.44-.025-.71-.373-.71-.77zm12.77-1.266c.17 0 .342.025.489.1.147.074.294.149.391.273.123.099.196.248.27.396.073.15.097.323.097.497 0 .173-.024.347-.098.496a1.418 1.418 0 0 1-.269.397 2.21 2.21 0 0 1-.391.272c-.147.075-.318.1-.49.1-.17 0-.342-.025-.489-.1-.146-.074-.293-.148-.391-.272-.122-.1-.196-.248-.27-.397a1.124 1.124 0 0 1-.097-.496c0-.174.024-.348.098-.497a1.42 1.42 0 0 1 .269-.397c.122-.099.245-.198.391-.272.147-.05.318-.1.49-.1zm0 .496c-.098 0-.196.025-.294.05a.497.497 0 0 0-.22.149.516.516 0 0 0-.147.248c-.049.1-.049.199-.049.298 0 .124.025.223.05.297.048.1.097.174.146.248a.578.578 0 0 0 .22.15c.098.024.196.049.294.049.098 0 .195-.025.293-.05.098-.024.171-.099.245-.148a.516.516 0 0 0 .147-.249c.048-.099.048-.198.048-.297a.936.936 0 0 0-.048-.298 2.166 2.166 0 0 0-.147-.248.507.507 0 0 0-.245-.149c-.098-.025-.195-.05-.293-.05zm-8.098.77c0-.745-.465-1.24-1.1-1.24-.686 0-1.175.495-1.175 1.24s.49 1.24 1.199 1.24c.342 0 .685-.1.954-.323l-.245-.372c-.195.15-.44.248-.685.248-.318 0-.636-.148-.71-.57h1.738c0-.1.024-.174.024-.223zm-1.737-.224c.05-.347.27-.57.612-.57.318 0 .538.198.587.57h-1.199zm3.865-.372c-.146-.099-.44-.198-.733-.198-.27 0-.44.099-.44.273 0 .149.17.198.39.223l.245.025c.514.074.808.297.808.72 0 .446-.392.768-1.077.768-.391 0-.734-.1-1.003-.298l.245-.397c.171.125.416.249.783.249.342 0 .538-.1.538-.298 0-.124-.122-.198-.416-.248l-.245-.025c-.513-.074-.807-.322-.807-.695 0-.47.391-.769.979-.769.366 0 .709.075.954.249l-.22.421zm2.447-.124h-.832v1.067c0 .248.073.397.343.397.122 0 .293-.05.44-.124l.147.446c-.171.124-.416.174-.636.174-.612 0-.808-.323-.808-.868v-1.092h-.465v-.471h.465v-.72h.514v.72h.832v.471zm1.761-.52c.098 0 .245.024.367.074l-.147.496c-.097-.05-.22-.05-.318-.05-.342 0-.489.223-.489.62v1.34h-.514v-2.357h.514v.298c.098-.298.294-.422.587-.422z"/>
    <path fill="#7673C0"
          d="M18.852 2.675h-7.706v14.15h7.706V2.675z"/>
    <path fill="#EB001B"
          d="M11.636 9.75a9.097 9.097 0 0 1 3.352-7.075A8.635 8.635 0 0 0 9.557.75C4.689.75.75 4.775.75 9.75s3.939 9 8.807 9a8.635 8.635 0 0 0 5.43-1.925 9.097 9.097 0 0 1-3.35-7.075z"/>
    <path fill="#00A1DF"
          d="M29.25 9.75c0 4.975-3.94 9-8.807 9a8.635 8.635 0 0 1-5.431-1.925c2.055-1.65 3.351-4.2 3.351-7.075a9.097 9.097 0 0 0-3.351-7.075A8.635 8.635 0 0 1 20.442.75c4.869 0 8.808 4.05 8.808 9z"/>
</svg>
