<svg xmlns="http://www.w3.org/2000/svg" fill="none" viewBox="0 0 30 24">
  <path fill="#231F20" d="M5.88916 23.1966v-1.4931c.02451-.4977-.31867-.9207-.80893-.9456h-.12256c-.31867-.0249-.63734.1493-.83345.423-.17159-.2737-.46574-.4479-.78441-.423-.26964-.0249-.53929.1244-.68637.3484v-.2986h-.51477v2.3889h.51477v-1.3189c-.04902-.2986.1716-.5972.46575-.6221h.09805c.34319 0 .51478.2239.51478.6221v1.3189h.51477v-1.3189c-.04903-.2986.17159-.5972.46575-.6221h.09805c.34318 0 .51477.2239.51477.6221v1.3189h.5638Zm7.62354-2.3889h-.8334v-.7217h-.5148v.7217h-.4658v.4728h.4658v1.0949c0 .5474.2206.8709.8089.8709.2206 0 .4412-.0746.6374-.1742l-.1471-.4479c-.1471.0747-.2942.1244-.4413.1244-.2451 0-.3431-.1493-.3431-.3981v-1.0949h.8334v-.4479Zm4.3633-.0498c-.2451 0-.4902.1244-.6128.3484v-.2986h-.5148v2.3889h.5148v-1.3438c0-.3981.1716-.6221.4902-.6221.0981 0 .2207.0249.3187.0498l.1471-.4977c-.1226-.0249-.2451-.0498-.3432-.0249Zm-6.594.2488c-.2941-.1742-.6128-.2488-.956-.2488-.5883 0-.98051.2986-.98051.7714 0 .3982.29416.6221.80891.6968l.2452.0249c.2696.0497.4167.1244.4167.2488 0 .1742-.1961.2986-.5393.2986-.2697 0-.56381-.0746-.78443-.2488l-.24513.3981c.29416.1991.66185.3235 1.00506.2986.6863 0 1.0785-.3235 1.0785-.7714 0-.4479-.3186-.647-.8089-.7216l-.2451-.0249c-.2206-.0249-.39222-.0747-.39222-.224s.17162-.2737.44122-.2737c.2697 0 .5148.0747.7354.1991l.2206-.4231Zm13.6538-.2488c-.2452 0-.4903.1244-.6129.3484v-.2986h-.5147v2.3889h.5147v-1.3438c0-.3981.1716-.6221.4903-.6221.098 0 .2206.0249.3187.0498l.147-.4977c-.098-.0249-.2206-.0498-.3431-.0249Zm-6.5695 1.2442c-.0245.6719.4902 1.2193 1.1276 1.2442h.1225c.2942.0249.6129-.0746.8335-.2737l-.2452-.423c-.1715.1244-.3922.199-.6128.2239-.4167-.0249-.7109-.3981-.6863-.8212.0245-.3732.3186-.6718.6863-.6967.2206 0 .4413.0746.6128.2239l.2452-.423c-.2452-.1991-.5393-.2986-.8335-.2737-.6618-.0498-1.2011.4728-1.2501 1.1198v.0995Zm4.78 0v-1.1944h-.5148v.2986c-.1716-.224-.4412-.3484-.7354-.3484-.6863 0-1.2256.5475-1.2256 1.2442 0 .6968.5393 1.2442 1.2256 1.2442.2942 0 .5638-.1244.7354-.3484v.2987h.5148v-1.1945Zm-1.8875 0c.0245-.3981.3677-.6967.7599-.6719.3922.0249.6864.3733.6619.7715-.0246.3732-.3187.6718-.7109.6718s-.7109-.2986-.7109-.6967v-.0747Zm-6.1528-1.2442c-.6863 0-1.2256.5723-1.2011 1.2691.0245.6968.5638 1.2442 1.2502 1.2193.3432.0249.7108-.0995.9805-.3235l-.2451-.3732c-.1961.1493-.4413.2488-.6864.2488-.3432.0249-.6619-.2239-.7109-.5723h1.7404v-.1991c0-.7714-.4657-1.2691-1.1276-1.2691Zm0 .4479c.3187 0 .5884.2489.5884.5724h-1.2257c.0245-.3235.2942-.5724.6373-.5724Zm12.7713.7963v-2.14h-.4902v1.2442c-.1716-.224-.4413-.3484-.7354-.3484-.6864 0-1.2257.5475-1.2257 1.2442 0 .6968.5393 1.2442 1.2257 1.2442.2941 0 .5638-.1244.7354-.3484v.2987h.4902v-1.1945Zm-1.8875 0c.0245-.3981.3677-.6967.7599-.6719.3922.0249.6864.3733.6619.7715-.0245.3732-.3187.6718-.7109.6718s-.7109-.2986-.7109-.6967v-.0747Zm-17.20811 0v-1.1944h-.51477v.2986c-.17159-.224-.44123-.3484-.73539-.3484-.68636 0-1.22565.5475-1.22565 1.2442 0 .6968.53929 1.2442 1.22565 1.2442.29416 0 .5638-.1244.73539-.3484v.2987h.51477v-1.1945Zm-1.91201 0c.02451-.3981.3677-.6967.7599-.6719.39221.0249.68637.3733.66185.7715-.02451.3732-.31867.6718-.71087.6718-.39221 0-.71088-.2986-.71088-.6967v-.0747Z"/>
  <path fill="#FF5F00" d="M18.8573 2.67279h-7.7216V16.7962h7.7216V2.67279Z"/>
  <path fill="#EB001B" d="M11.6254 9.73544c0-2.74484 1.2502-5.36492 3.3828-7.06173C11.1842-.39552 5.61976.27821 2.62917 4.19585-.36141 8.11349.27593 13.7529 4.12447 16.7972c3.2112 2.5701 7.69703 2.5701 10.90833 0-2.1817-1.7218-3.4319-4.3169-3.4074-7.06176Z"/>
  <path fill="#F79E1B" d="M29.25 9.75893c0 4.96567-3.9466 8.98307-8.8247 8.98307-1.9856 0-3.8976-.6737-5.4419-1.9213 3.824-3.0693 4.4859-8.73363 1.4953-12.62632-.4412-.57392-.9315-1.07298-1.4953-1.52213 3.824-3.06924 9.3885-2.3955 12.4036 1.52213 1.2011 1.57205 1.863 3.54335 1.863 5.56455Z"/>
</svg>
