<svg xmlns="http://www.w3.org/2000/svg" fill="none" viewBox="0 0 30 24">
    <path fill="#231F20"
          d="M5.89 23.197v-1.493c.024-.498-.32-.921-.81-.946h-.122c-.319-.025-.638.15-.834.423-.171-.274-.466-.448-.784-.423a.764.764 0 0 0-.687.348v-.298H2.14v2.389h.514v-1.32c-.049-.298.172-.596.466-.621h.098c.343 0 .515.224.515.622v1.319h.515v-1.32c-.05-.298.171-.596.466-.621h.098c.343 0 .514.224.514.622v1.319h.564zm7.623-2.39h-.834v-.721h-.514v.722h-.466v.473h.466v1.094c0 .548.22.871.808.871.221 0 .442-.074.638-.174l-.147-.448a.987.987 0 0 1-.442.125c-.245 0-.343-.15-.343-.398v-1.095h.834v-.448zm4.363-.05a.697.697 0 0 0-.613.35v-.3h-.515v2.39h.515v-1.344c0-.398.172-.622.49-.622.099 0 .221.025.32.05l.146-.498c-.122-.025-.245-.05-.343-.025zm-6.594.25a1.832 1.832 0 0 0-.956-.25c-.588 0-.98.3-.98.772 0 .398.294.622.808.697l.246.025c.27.05.416.124.416.249 0 .174-.196.298-.539.298-.27 0-.564-.074-.784-.248l-.246.398c.295.199.662.323 1.005.298.687 0 1.079-.323 1.079-.771s-.319-.647-.809-.722l-.245-.025c-.22-.025-.392-.074-.392-.224s.171-.273.441-.273.515.074.735.199l.221-.423zm13.654-.25a.697.697 0 0 0-.613.35v-.3h-.515v2.39h.515v-1.344c0-.398.172-.622.49-.622.098 0 .22.025.319.05l.147-.498c-.098-.025-.22-.05-.343-.025zm-6.57 1.245a1.19 1.19 0 0 0 1.128 1.244h.122c.295.025.613-.074.834-.273l-.245-.423a1.307 1.307 0 0 1-.613.223c-.417-.024-.711-.398-.686-.82a.744.744 0 0 1 .686-.697c.22 0 .441.074.613.223l.245-.423c-.245-.199-.54-.298-.834-.273-.661-.05-1.2.473-1.25 1.12v.1zm4.78 0v-1.194h-.514v.298a.914.914 0 0 0-.736-.348c-.686 0-1.225.547-1.225 1.244s.539 1.244 1.225 1.244a.914.914 0 0 0 .736-.348v.299h.514v-1.195zm-1.887 0a.717.717 0 0 1 .76-.672.72.72 0 0 1 .662.772c-.025.373-.32.671-.711.671s-.711-.298-.711-.696v-.075zm-6.153-1.244a1.21 1.21 0 0 0-1.201 1.269c.024.697.564 1.244 1.25 1.22.343.024.71-.1.98-.324l-.244-.373a1.16 1.16 0 0 1-.687.248.673.673 0 0 1-.71-.572h1.74v-.199c0-.771-.466-1.27-1.128-1.27zm0 .448a.58.58 0 0 1 .588.572H14.47a.624.624 0 0 1 .637-.572zm12.771.796v-2.14h-.49v1.244a.914.914 0 0 0-.735-.348c-.687 0-1.226.547-1.226 1.244s.54 1.244 1.226 1.244a.914.914 0 0 0 .735-.348v.299h.49v-1.195zm-1.887 0a.717.717 0 0 1 .76-.672.72.72 0 0 1 .662.772c-.025.373-.32.671-.711.671s-.711-.298-.711-.696v-.075zm-17.208 0v-1.194h-.515v.298a.914.914 0 0 0-.735-.348c-.687 0-1.226.547-1.226 1.244s.54 1.244 1.226 1.244a.914.914 0 0 0 .735-.348v.299h.515v-1.195zm-1.912 0a.717.717 0 0 1 .76-.672.72.72 0 0 1 .661.772.707.707 0 0 1-.71.671.696.696 0 0 1-.711-.696v-.075z"/>
    <path fill="#FF5F00"
          d="M18.857 2.673h-7.721v14.123h7.721V2.673z"/>
    <path fill="#EB001B"
          d="M11.625 9.735c0-2.744 1.25-5.364 3.383-7.061A8.689 8.689 0 0 0 2.63 4.196C-.36 8.113.276 13.753 4.124 16.797a8.68 8.68 0 0 0 10.909 0c-2.182-1.722-3.432-4.317-3.408-7.062z"/>
    <path fill="#F79E1B"
          d="M29.25 9.759c0 4.966-3.947 8.983-8.825 8.983a8.637 8.637 0 0 1-5.442-1.921c3.824-3.07 4.486-8.734 1.496-12.627a8.71 8.71 0 0 0-1.496-1.522C18.807-.397 24.372.277 27.387 4.194A9.197 9.197 0 0 1 29.25 9.76z"/>
</svg>
