<svg xmlns="http://www.w3.org/2000/svg" fill="none" viewBox="0 0 38 12">
  <path fill="url(#a)" d="M20.0135 3.83615c-.0224 1.67179 1.4956 2.6047 2.6323 3.15699 1.1741.56721 1.5629.93291 1.5629 1.44042-.0075.77618-.9347 1.1195-1.8022 1.13442-1.5106.02239-2.393-.41048-3.0884-.7314l-.5459 2.54502c.7029.3209 1.9966.6045 3.3427.6194 3.1632 0 5.2271-1.5598 5.2421-3.97046.0149-3.05996-4.2476-3.23162-4.2176-4.60487.0074-.41795.4038-.85829 1.2787-.97024.4337-.0597 1.6228-.09702 2.9688.52244l.5309-2.4629C27.185.25375 26.2502 0 25.0911 0c-2.9688 0-5.0626 1.57476-5.0776 3.83615ZM32.9955.20897c-.5758 0-1.0619.33585-1.2788.85082L27.2 11.8144h3.1557l.6282-1.7314h3.8586l.3665 1.7314h2.7818L35.5604.20897h-2.5649Zm.4412 3.14206.9123 4.35859h-2.4977l1.5854-4.35859ZM16.1847.20897 13.6945 11.8219h3.0062L19.1909.20897h-3.0062Zm-4.4569 0L8.5945 8.11264l-1.26379-6.717C7.18114.64931 6.59786.20897 5.93978.20897h-5.115L.75.5523c1.05441.23136 2.24342.59706 2.9688.98516.4412.23882.56833.44779.71789 1.02247l2.40046 9.26198h3.17815L14.891.20897h-3.1632Z"/>
  <defs>
    <linearGradient id="a" x1=".75" x2="37.9908" y1="6.00111" y2="6.00111" gradientUnits="userSpaceOnUse">
      <stop offset="0" stop-color="#222357"/>
      <stop offset="1" stop-color="#254AA5"/>
    </linearGradient>
  </defs>
</svg>
